<?xml version="1.0" encoding="UTF-8"?>
<svg width="58px" height="58px" viewBox="0 0 58 58" version="1.1" xmlns="http://www.w3.org/2000/svg" xmlns:xlink="http://www.w3.org/1999/xlink">
    <title>编组</title>
    <defs>
        <polygon id="path-1" points="0 0 58 0 58 58 0 58"></polygon>
    </defs>
    <g id="朱雀" stroke="none" stroke-width="1" fill="none" fill-rule="evenodd">
        <g id="loading" transform="translate(-923.000000, -418.000000)">
            <g id="编组" transform="translate(923.000000, 418.000000)">
                <mask id="mask-2" fill="white">
                    <use xlink:href="#path-1"></use>
                </mask>
                <g id="Clip-2"></g>
                <path d="M21.100351,34.4368715 C23.1846546,34.9769839 24.6508399,36.9502657 24.482389,39.1707018 C24.3908978,40.3796188 23.8343937,41.4807691 22.9143659,42.2712909 C21.9945706,43.0614639 20.8219246,43.4460295 19.6128913,43.3545382 C18.4028117,43.2650232 17.3022427,42.7064266 16.5117209,41.786515 C15.7359633,40.8834602 15.3537228,39.7369711 15.4266136,38.5508397 C17.1822694,36.9502657 19.1018422,35.609285 21.100351,34.4368715 M27.1777195,43.6336621 C27.9953282,42.4092834 28.4904506,40.9905294 28.6048437,39.4826091 C28.9659262,34.7137866 27.0085711,31.4828777 30.7547142,29.8016239 C33.5277017,28.6121212 36.1974565,27.4657484 38.5460036,26.1294179 C36.6599117,34.4789552 32.2264797,39.5975835 27.1777195,43.6336621 M12.0128384,42.3240698 C12.3540415,43.0962236 12.8108003,43.8223411 13.3763721,44.4806829 C14.6438808,45.9552385 16.3286221,46.9417632 18.2030887,47.3243524 C18.5625436,47.3977082 18.9288575,47.4487434 19.3008677,47.4769929 C20.3263372,47.5545338 21.33774,47.4518822 22.2995027,47.1826398 C17.3471164,50.5508437 12.3863599,53.5544777 9.04268537,58 C21.3729647,51.0671242 55.5781436,54.0182117 52.4166378,19.4133543 C51.0267146,25.6534773 43.9308518,27.8690307 46.5430612,24.7763469 C50.9304569,19.5819214 53.2334328,6.9199717 51.2641036,0 C48.663287,6.6747937 16.7457386,25.8277408 21.1723117,16.7711516 C13.7378033,22.2746943 1.28848071,36.6695142 6.70308973,56.665297 C7.43908874,50.5080626 9.3709844,45.9023433 12.0128384,42.3240698" id="Fill-1" fill="#0063FF" fill-rule="nonzero" mask="url(#mask-2)"></path>
            </g>
        </g>
    </g>
</svg>